<svg xmlns="http://www.w3.org/2000/svg" xmlns:xlink="http://www.w3.org/1999/xlink" width="200" zoomAndPan="magnify" viewBox="0 0 150 149.999998" height="200" preserveAspectRatio="xMidYMid meet" version="1.0"><defs><clipPath id="25a14054d4"><path d="M 19.578125 0.695312 L 61.042969 0.695312 L 61.042969 105.695312 L 19.578125 105.695312 Z M 19.578125 0.695312 " clip-rule="nonzero"/></clipPath><clipPath id="7a68ad2b18"><path d="M 35 35 L 61.054688 35 L 61.054688 49 L 35 49 Z M 35 35 " clip-rule="nonzero"/></clipPath><clipPath id="7c33f7775d"><path d="M 3.644531 0.695312 L 45.132812 0.695312 L 45.132812 105.695312 L 3.644531 105.695312 Z M 3.644531 0.695312 " clip-rule="nonzero"/></clipPath><clipPath id="6a9cdc2b1c"><path d="M 0.679688 24 L 34 24 L 34 82 L 0.679688 82 Z M 0.679688 24 " clip-rule="nonzero"/></clipPath><clipPath id="ccdfa4e7e7"><path d="M 5.421875 37.480469 L 15 37.480469 L 15 47 L 5.421875 47 Z M 5.421875 37.480469 " clip-rule="nonzero"/></clipPath><clipPath id="56f6a8250f"><path d="M 14 57 L 21.171875 57 L 21.171875 63.730469 L 14 63.730469 Z M 14 57 " clip-rule="nonzero"/></clipPath><clipPath id="ea8a0c2a55"><path d="M 14 51 L 21.171875 51 L 21.171875 57 L 14 57 Z M 14 51 " clip-rule="nonzero"/></clipPath><clipPath id="2db3959429"><path d="M 13 44 L 21.171875 44 L 21.171875 52 L 13 52 Z M 13 44 " clip-rule="nonzero"/></clipPath><clipPath id="fa6c43256a"><rect x="0" width="63" y="0" height="106"/></clipPath></defs><rect x="-15" width="180" fill="#ffffff" y="-15" height="179.999997" fill-opacity="1"/><rect x="-15" width="180" fill="#ffffff" y="-15" height="179.999997" fill-opacity="1"/><g transform="matrix(1, 0, 0, 1, 44, 18)"><g clip-path="url(#fa6c43256a)"><g clip-path="url(#25a14054d4)"><path fill="#556cb1" d="M 48.171875 63.582031 C 50.257812 63.582031 51.980469 65.3125 51.980469 67.410156 C 51.980469 69.542969 50.257812 71.273438 48.171875 71.273438 C 46.046875 71.273438 44.320312 69.542969 44.320312 67.410156 C 44.320312 65.3125 46.046875 63.582031 48.171875 63.582031 Z M 45.566406 79.6875 C 47.691406 79.6875 49.414062 81.417969 49.414062 83.511719 C 49.414062 85.644531 47.691406 87.378906 45.566406 87.378906 C 43.480469 87.378906 41.753906 85.644531 41.753906 83.511719 C 41.753906 81.417969 43.480469 79.6875 45.566406 79.6875 Z M 48.8125 47.679688 C 50.9375 47.679688 52.664062 49.410156 52.664062 51.503906 C 52.664062 53.640625 50.9375 55.371094 48.8125 55.371094 C 46.726562 55.371094 45.003906 53.640625 45.003906 51.503906 C 45.003906 49.410156 46.726562 47.679688 48.8125 47.679688 Z M 44.441406 105.695312 C 53.625 105.695312 61.042969 82.183594 61.042969 53.195312 C 61.042969 24.207031 53.625 0.695312 44.441406 0.695312 L 19.582031 0.695312 C 28.765625 0.695312 36.222656 24.207031 36.222656 53.195312 C 36.222656 82.183594 28.765625 105.695312 19.582031 105.695312 L 44.441406 105.695312 " fill-opacity="1" fill-rule="evenodd"/></g><g clip-path="url(#7a68ad2b18)"><path fill="#5c76c1" d="M 61.003906 48.242188 C 60.921875 46.230469 60.84375 44.257812 60.683594 42.324219 C 55.066406 33.589844 40.992188 33.832031 35.902344 43.128906 C 35.980469 44.78125 36.0625 46.433594 36.140625 48.125 C 38.707031 35.117188 58.515625 35.160156 61.003906 48.242188 " fill-opacity="1" fill-rule="evenodd"/></g><g clip-path="url(#7c33f7775d)"><path fill="#738ccf" d="M 20.261719 105.695312 C 11.121094 105.695312 3.664062 82.183594 3.664062 53.195312 C 3.664062 24.207031 11.121094 0.695312 20.261719 0.695312 L 45.125 0.695312 C 35.980469 0.695312 28.523438 24.207031 28.523438 53.195312 C 28.523438 82.183594 35.980469 105.695312 45.125 105.695312 L 20.261719 105.695312 " fill-opacity="1" fill-rule="evenodd"/></g><g clip-path="url(#6a9cdc2b1c)"><path fill="#556cb1" d="M 3.0625 80.332031 C 2.300781 76.265625 1.699219 71.878906 1.296875 67.289062 C 0.894531 62.777344 0.695312 58.066406 0.695312 53.195312 C 0.695312 48.324219 0.894531 43.613281 1.296875 39.105469 C 1.699219 34.472656 2.300781 30.046875 3.0625 25.9375 C 3.222656 25.253906 3.824219 24.773438 4.503906 24.773438 L 31.652344 24.773438 C 32.453125 24.773438 33.09375 25.414062 33.09375 26.222656 C 33.09375 26.34375 33.054688 26.460938 33.054688 26.582031 C 32.292969 30.527344 31.730469 34.835938 31.332031 39.347656 C 30.929688 43.773438 30.730469 48.40625 30.730469 53.195312 C 30.730469 57.988281 30.929688 62.617188 31.332031 67.046875 C 31.730469 71.59375 32.292969 75.941406 33.054688 79.890625 C 33.214844 80.695312 32.695312 81.460938 31.890625 81.578125 C 31.8125 81.621094 31.730469 81.621094 31.652344 81.621094 L 4.503906 81.621094 C 3.742188 81.621094 3.140625 81.058594 3.0625 80.332031 " fill-opacity="1" fill-rule="nonzero"/></g><path fill="#343e43" d="M 4.90625 79.042969 L 29.804688 79.042969 C 29.125 75.136719 28.601562 71.191406 28.28125 67.246094 C 27.882812 62.578125 27.679688 57.90625 27.679688 53.195312 C 27.679688 48.484375 27.882812 43.816406 28.28125 39.144531 C 28.601562 35.199219 29.125 31.253906 29.804688 27.347656 L 4.90625 27.347656 C 4.222656 31.292969 3.703125 35.320312 3.34375 39.347656 C 2.941406 43.9375 2.742188 48.566406 2.742188 53.195312 C 2.742188 57.824219 2.941406 62.457031 3.34375 67.046875 C 3.703125 71.070312 4.222656 75.097656 4.90625 79.042969 " fill-opacity="1" fill-rule="evenodd"/><path fill="#232b31" d="M 4.90625 79.042969 L 29.804688 79.042969 C 29.644531 78.117188 29.484375 77.230469 29.367188 76.304688 C 10.480469 71.835938 9.117188 41.320312 9.476562 27.347656 L 4.90625 27.347656 C 4.222656 31.292969 3.703125 35.320312 3.34375 39.347656 C 2.941406 43.9375 2.742188 48.566406 2.742188 53.195312 C 2.742188 57.824219 2.941406 62.457031 3.34375 67.046875 C 3.703125 71.070312 4.222656 75.097656 4.90625 79.042969 " fill-opacity="1" fill-rule="evenodd"/><path fill="#ffffff" d="M 11.324219 46.847656 C 11.453125 46.847656 11.570312 46.796875 11.664062 46.707031 C 11.753906 46.617188 11.804688 46.496094 11.804688 46.367188 C 11.804688 45.691406 12.066406 45.050781 12.546875 44.574219 C 13.027344 44.09375 13.664062 43.828125 14.34375 43.828125 C 14.46875 43.828125 14.589844 43.777344 14.679688 43.6875 C 14.773438 43.597656 14.820312 43.476562 14.824219 43.347656 C 14.824219 43.21875 14.769531 43.097656 14.679688 43.011719 C 14.59375 42.921875 14.476562 42.871094 14.34375 42.867188 C 13.410156 42.867188 12.53125 43.234375 11.871094 43.894531 C 11.207031 44.554688 10.84375 45.433594 10.84375 46.367188 C 10.84375 46.625 11.066406 46.847656 11.324219 46.847656 Z M 11.324219 46.847656 " fill-opacity="1" fill-rule="nonzero"/><path fill="#ffffff" d="M 8.148438 46.367188 C 8.152344 46.625 8.375 46.847656 8.628906 46.847656 C 8.757812 46.847656 8.878906 46.800781 8.96875 46.707031 C 9.058594 46.617188 9.109375 46.496094 9.109375 46.367188 C 9.109375 43.484375 11.457031 41.136719 14.34375 41.136719 C 14.472656 41.136719 14.59375 41.085938 14.683594 40.996094 C 14.773438 40.90625 14.824219 40.785156 14.824219 40.65625 C 14.824219 40.523438 14.769531 40.40625 14.679688 40.316406 C 14.59375 40.230469 14.472656 40.175781 14.34375 40.175781 C 12.691406 40.175781 11.136719 40.820312 9.964844 41.992188 C 8.796875 43.164062 8.148438 44.71875 8.148438 46.367188 Z M 8.148438 46.367188 " fill-opacity="1" fill-rule="nonzero"/><g clip-path="url(#ccdfa4e7e7)"><path fill="#ffffff" d="M 5.421875 46.367188 C 5.421875 46.625 5.644531 46.847656 5.902344 46.847656 C 6.03125 46.847656 6.152344 46.800781 6.242188 46.707031 C 6.332031 46.617188 6.382812 46.496094 6.382812 46.367188 C 6.382812 44.246094 7.210938 42.246094 8.714844 40.742188 C 10.222656 39.238281 12.21875 38.40625 14.34375 38.40625 C 14.605469 38.40625 14.824219 38.191406 14.824219 37.925781 C 14.824219 37.796875 14.769531 37.675781 14.683594 37.589844 C 14.59375 37.5 14.476562 37.449219 14.34375 37.445312 C 9.421875 37.449219 5.421875 41.449219 5.421875 46.367188 Z M 5.421875 46.367188 " fill-opacity="1" fill-rule="nonzero"/></g><g clip-path="url(#56f6a8250f)"><path fill="#ffffff" d="M 21.277344 63.292969 C 21.277344 63.582031 21.132812 63.726562 20.84375 63.726562 L 14.609375 63.726562 C 14.320312 63.726562 14.179688 63.582031 14.179688 63.292969 L 14.179688 62.46875 C 14.179688 62.25 14.273438 62.066406 14.457031 61.941406 L 17.671875 59.726562 L 14.609375 59.726562 C 14.320312 59.726562 14.179688 59.582031 14.179688 59.292969 L 14.179688 58.34375 C 14.179688 58.054688 14.320312 57.910156 14.609375 57.910156 L 20.84375 57.910156 C 21.132812 57.910156 21.277344 58.054688 21.277344 58.34375 L 21.277344 59.167969 C 21.277344 59.390625 21.179688 59.570312 21 59.695312 L 17.757812 61.914062 L 20.84375 61.914062 C 21.132812 61.914062 21.277344 62.058594 21.277344 62.34375 Z M 21.277344 63.292969 " fill-opacity="1" fill-rule="nonzero"/></g><g clip-path="url(#ea8a0c2a55)"><path fill="#ffffff" d="M 18.5625 54.453125 L 20.84375 54.453125 C 21.132812 54.453125 21.277344 54.597656 21.277344 54.886719 L 21.277344 55.835938 C 21.277344 56.125 21.132812 56.265625 20.84375 56.265625 L 14.609375 56.265625 C 14.320312 56.265625 14.175781 56.125 14.175781 55.835938 L 14.175781 51.855469 C 14.175781 51.566406 14.320312 51.421875 14.609375 51.421875 L 15.558594 51.421875 C 15.847656 51.421875 15.988281 51.566406 15.988281 51.855469 L 15.988281 54.453125 L 16.882812 54.453125 L 16.882812 52.574219 C 16.882812 52.285156 17.023438 52.140625 17.3125 52.140625 L 18.128906 52.140625 C 18.417969 52.140625 18.558594 52.285156 18.558594 52.574219 L 18.558594 54.453125 Z M 18.5625 54.453125 " fill-opacity="1" fill-rule="nonzero"/></g><g clip-path="url(#2db3959429)"><path fill="#ffffff" d="M 21.457031 47.3125 C 21.457031 48.339844 21.046875 49.269531 20.363281 49.949219 C 19.683594 50.632812 18.753906 51.042969 17.726562 51.042969 C 16.691406 51.042969 15.769531 50.632812 15.089844 49.949219 C 14.40625 49.269531 13.996094 48.339844 13.996094 47.3125 C 13.996094 46.3125 14.378906 45.382812 15.070312 44.683594 C 15.269531 44.480469 15.492188 44.511719 15.671875 44.738281 L 16.269531 45.5 C 16.449219 45.71875 16.421875 45.882812 16.238281 46.101562 C 15.949219 46.449219 15.808594 46.851562 15.808594 47.3125 C 15.808594 47.839844 16.027344 48.320312 16.371094 48.664062 C 16.71875 49.011719 17.199219 49.230469 17.726562 49.230469 C 18.253906 49.230469 18.734375 49.011719 19.078125 48.664062 C 19.425781 48.320312 19.636719 47.839844 19.636719 47.3125 C 19.636719 46.871094 19.5 46.476562 19.230469 46.140625 C 19.070312 45.921875 19.03125 45.746094 19.214844 45.527344 L 19.835938 44.789062 C 20.019531 44.566406 20.25 44.539062 20.449219 44.757812 C 21.105469 45.449219 21.457031 46.351562 21.457031 47.3125 Z M 21.457031 47.3125 " fill-opacity="1" fill-rule="nonzero"/></g></g></g></svg>