<svg xmlns="http://www.w3.org/2000/svg" xmlns:xlink="http://www.w3.org/1999/xlink" width="200" zoomAndPan="magnify" viewBox="0 0 150 149.999998" height="200" preserveAspectRatio="xMidYMid meet" version="1.0"><defs><clipPath id="99bf6166b2"><path d="M 63.660156 18.695312 L 105.292969 18.695312 L 105.292969 123.695312 L 63.660156 123.695312 Z M 63.660156 18.695312 " clip-rule="nonzero"/></clipPath><clipPath id="3be5dde904"><path d="M 80 53 L 105.429688 53 L 105.429688 67 L 80 67 Z M 80 53 " clip-rule="nonzero"/></clipPath><clipPath id="418978fe08"><path d="M 47.660156 18.695312 L 89.320312 18.695312 L 89.320312 123.695312 L 47.660156 123.695312 Z M 47.660156 18.695312 " clip-rule="nonzero"/></clipPath><clipPath id="b9f6b5b4fb"><path d="M 44.679688 42 L 78 42 L 78 100 L 44.679688 100 Z M 44.679688 42 " clip-rule="nonzero"/></clipPath><clipPath id="6949a9ac77"><path d="M 49.421875 55.476562 L 59 55.476562 L 59 65 L 49.421875 65 Z M 49.421875 55.476562 " clip-rule="nonzero"/></clipPath><clipPath id="dff16009e5"><path d="M 58 75 L 65.171875 75 L 65.171875 81.726562 L 58 81.726562 Z M 58 75 " clip-rule="nonzero"/></clipPath><clipPath id="074091a747"><path d="M 58 69 L 65.171875 69 L 65.171875 75 L 58 75 Z M 58 69 " clip-rule="nonzero"/></clipPath><clipPath id="ca6be14da6"><path d="M 57 62 L 65.171875 62 L 65.171875 70 L 57 70 Z M 57 62 " clip-rule="nonzero"/></clipPath></defs><rect x="-15" width="180" fill="#ffffff" y="-15" height="179.999997" fill-opacity="1"/><rect x="-15" width="180" fill="#ffffff" y="-15" height="179.999997" fill-opacity="1"/><g clip-path="url(#99bf6166b2)"><path fill="#5ce1e6" d="M 92.371094 81.582031 C 94.464844 81.582031 96.195312 83.3125 96.195312 85.410156 C 96.195312 87.542969 94.464844 89.273438 92.371094 89.273438 C 90.238281 89.273438 88.503906 87.542969 88.503906 85.410156 C 88.503906 83.3125 90.238281 81.582031 92.371094 81.582031 Z M 89.753906 97.6875 C 91.886719 97.6875 93.617188 99.417969 93.617188 101.511719 C 93.617188 103.644531 91.886719 105.378906 89.753906 105.378906 C 87.660156 105.378906 85.929688 103.644531 85.929688 101.511719 C 85.929688 99.417969 87.660156 97.6875 89.753906 97.6875 Z M 93.015625 65.679688 C 95.148438 65.679688 96.878906 67.410156 96.878906 69.503906 C 96.878906 71.640625 95.148438 73.371094 93.015625 73.371094 C 90.921875 73.371094 89.191406 71.640625 89.191406 69.503906 C 89.191406 67.410156 90.921875 65.679688 93.015625 65.679688 Z M 88.625 123.695312 C 97.847656 123.695312 105.292969 100.183594 105.292969 71.195312 C 105.292969 42.207031 97.847656 18.695312 88.625 18.695312 L 63.664062 18.695312 C 72.882812 18.695312 80.371094 42.207031 80.371094 71.195312 C 80.371094 100.183594 72.882812 123.695312 63.664062 123.695312 L 88.625 123.695312 " fill-opacity="1" fill-rule="evenodd"/></g><g clip-path="url(#3be5dde904)"><path fill="#00a8a8" d="M 105.253906 66.242188 C 105.171875 64.230469 105.09375 62.257812 104.933594 60.324219 C 99.296875 51.589844 85.164062 51.832031 80.050781 61.128906 C 80.132812 62.78125 80.210938 64.433594 80.292969 66.125 C 82.867188 53.117188 102.757812 53.160156 105.253906 66.242188 " fill-opacity="1" fill-rule="evenodd"/></g><g clip-path="url(#418978fe08)"><path fill="#00a8a8" d="M 64.347656 123.695312 C 55.167969 123.695312 47.679688 100.183594 47.679688 71.195312 C 47.679688 42.207031 55.167969 18.695312 64.347656 18.695312 L 89.3125 18.695312 C 80.132812 18.695312 72.644531 42.207031 72.644531 71.195312 C 72.644531 100.183594 80.132812 123.695312 89.3125 123.695312 L 64.347656 123.695312 " fill-opacity="1" fill-rule="evenodd"/></g><g clip-path="url(#b9f6b5b4fb)"><path fill="#5ce1e6" d="M 47.078125 98.332031 C 46.3125 94.265625 45.707031 89.878906 45.304688 85.289062 C 44.902344 80.777344 44.703125 76.066406 44.703125 71.195312 C 44.703125 66.324219 44.902344 61.613281 45.304688 57.105469 C 45.707031 52.472656 46.3125 48.046875 47.078125 43.9375 C 47.238281 43.253906 47.839844 42.773438 48.527344 42.773438 L 75.78125 42.773438 C 76.589844 42.773438 77.234375 43.414062 77.234375 44.222656 C 77.234375 44.34375 77.191406 44.460938 77.191406 44.582031 C 76.425781 48.527344 75.863281 52.835938 75.460938 57.347656 C 75.058594 61.773438 74.855469 66.40625 74.855469 71.195312 C 74.855469 75.988281 75.058594 80.617188 75.460938 85.046875 C 75.863281 89.59375 76.425781 93.941406 77.191406 97.890625 C 77.351562 98.695312 76.828125 99.460938 76.023438 99.578125 C 75.945312 99.621094 75.863281 99.621094 75.78125 99.621094 L 48.527344 99.621094 C 47.761719 99.621094 47.15625 99.058594 47.078125 98.332031 " fill-opacity="1" fill-rule="nonzero"/></g><path fill="#343e43" d="M 48.929688 97.042969 L 73.929688 97.042969 C 73.246094 93.136719 72.722656 89.191406 72.402344 85.246094 C 72 80.578125 71.796875 75.90625 71.796875 71.195312 C 71.796875 66.484375 72 61.816406 72.402344 57.144531 C 72.722656 53.199219 73.246094 49.253906 73.929688 45.347656 L 48.929688 45.347656 C 48.246094 49.292969 47.722656 53.320312 47.359375 57.347656 C 46.957031 61.9375 46.753906 66.566406 46.753906 71.195312 C 46.753906 75.824219 46.957031 80.457031 47.359375 85.046875 C 47.722656 89.070312 48.246094 93.097656 48.929688 97.042969 " fill-opacity="1" fill-rule="evenodd"/><path fill="#232b31" d="M 48.929688 97.042969 L 73.929688 97.042969 C 73.769531 96.117188 73.609375 95.230469 73.488281 94.304688 C 54.523438 89.835938 53.15625 59.320312 53.519531 45.347656 L 48.929688 45.347656 C 48.246094 49.292969 47.722656 53.320312 47.359375 57.347656 C 46.957031 61.9375 46.753906 66.566406 46.753906 71.195312 C 46.753906 75.824219 46.957031 80.457031 47.359375 85.046875 C 47.722656 89.070312 48.246094 93.097656 48.929688 97.042969 " fill-opacity="1" fill-rule="evenodd"/><path fill="#ffffff" d="M 55.320312 64.847656 C 55.449219 64.847656 55.570312 64.796875 55.660156 64.707031 C 55.75 64.613281 55.800781 64.496094 55.800781 64.367188 C 55.800781 63.691406 56.066406 63.050781 56.542969 62.574219 C 57.023438 62.09375 57.660156 61.828125 58.339844 61.828125 C 58.464844 61.828125 58.585938 61.777344 58.679688 61.6875 C 58.769531 61.597656 58.816406 61.476562 58.820312 61.347656 C 58.820312 61.214844 58.765625 61.097656 58.679688 61.011719 C 58.589844 60.921875 58.472656 60.867188 58.339844 60.867188 C 57.40625 60.867188 56.527344 61.230469 55.867188 61.894531 C 55.207031 62.554688 54.84375 63.433594 54.839844 64.367188 C 54.839844 64.625 55.0625 64.847656 55.320312 64.847656 Z M 55.320312 64.847656 " fill-opacity="1" fill-rule="nonzero"/><path fill="#ffffff" d="M 52.148438 64.367188 C 52.148438 64.625 52.371094 64.847656 52.628906 64.847656 C 52.757812 64.847656 52.878906 64.796875 52.96875 64.707031 C 53.058594 64.617188 53.109375 64.496094 53.109375 64.367188 C 53.109375 61.484375 55.457031 59.136719 58.339844 59.136719 C 58.46875 59.136719 58.589844 59.085938 58.679688 58.996094 C 58.769531 58.90625 58.820312 58.785156 58.820312 58.65625 C 58.820312 58.523438 58.765625 58.40625 58.679688 58.316406 C 58.589844 58.230469 58.472656 58.175781 58.339844 58.175781 C 56.6875 58.175781 55.132812 58.820312 53.964844 59.992188 C 52.792969 61.164062 52.148438 62.714844 52.148438 64.367188 Z M 52.148438 64.367188 " fill-opacity="1" fill-rule="nonzero"/><g clip-path="url(#6949a9ac77)"><path fill="#ffffff" d="M 49.421875 64.367188 C 49.421875 64.625 49.644531 64.847656 49.902344 64.847656 C 50.03125 64.847656 50.152344 64.796875 50.242188 64.707031 C 50.332031 64.617188 50.382812 64.496094 50.382812 64.367188 C 50.382812 62.246094 51.210938 60.246094 52.714844 58.742188 C 54.21875 57.238281 56.21875 56.410156 58.339844 56.410156 C 58.605469 56.410156 58.820312 56.191406 58.820312 55.929688 C 58.820312 55.796875 58.765625 55.675781 58.679688 55.589844 C 58.589844 55.503906 58.472656 55.449219 58.339844 55.449219 C 53.421875 55.449219 49.421875 59.449219 49.421875 64.367188 Z M 49.421875 64.367188 " fill-opacity="1" fill-rule="nonzero"/></g><g clip-path="url(#dff16009e5)"><path fill="#ffffff" d="M 65.269531 81.285156 C 65.269531 81.574219 65.128906 81.71875 64.839844 81.71875 L 58.605469 81.71875 C 58.320312 81.71875 58.175781 81.574219 58.175781 81.285156 L 58.175781 80.460938 C 58.175781 80.242188 58.269531 80.058594 58.453125 79.933594 L 61.664062 77.71875 L 58.605469 77.71875 C 58.320312 77.71875 58.175781 77.574219 58.175781 77.285156 L 58.175781 76.335938 C 58.175781 76.050781 58.320312 75.90625 58.605469 75.90625 L 64.839844 75.90625 C 65.128906 75.90625 65.269531 76.050781 65.269531 76.335938 L 65.269531 77.164062 C 65.269531 77.382812 65.175781 77.566406 64.992188 77.691406 L 61.753906 79.90625 L 64.839844 79.90625 C 65.128906 79.90625 65.269531 80.050781 65.269531 80.335938 Z M 65.269531 81.285156 " fill-opacity="1" fill-rule="nonzero"/></g><g clip-path="url(#074091a747)"><path fill="#ffffff" d="M 62.558594 72.449219 L 64.839844 72.449219 C 65.128906 72.449219 65.269531 72.59375 65.269531 72.882812 L 65.269531 73.832031 C 65.269531 74.117188 65.128906 74.261719 64.839844 74.261719 L 58.605469 74.261719 C 58.316406 74.261719 58.175781 74.117188 58.175781 73.832031 L 58.175781 69.851562 C 58.175781 69.5625 58.316406 69.417969 58.605469 69.417969 L 59.554688 69.417969 C 59.84375 69.417969 59.984375 69.5625 59.984375 69.851562 L 59.984375 72.449219 L 60.878906 72.449219 L 60.878906 70.570312 C 60.878906 70.28125 61.019531 70.140625 61.308594 70.140625 L 62.125 70.140625 C 62.410156 70.140625 62.554688 70.28125 62.554688 70.570312 L 62.554688 72.449219 Z M 62.558594 72.449219 " fill-opacity="1" fill-rule="nonzero"/></g><g clip-path="url(#ca6be14da6)"><path fill="#ffffff" d="M 65.453125 65.308594 C 65.453125 66.335938 65.039062 67.265625 64.359375 67.949219 C 63.679688 68.628906 62.75 69.039062 61.722656 69.039062 C 60.6875 69.039062 59.765625 68.628906 59.085938 67.949219 C 58.402344 67.265625 57.992188 66.335938 57.992188 65.308594 C 57.992188 64.3125 58.375 63.382812 59.066406 62.683594 C 59.265625 62.480469 59.488281 62.507812 59.667969 62.738281 L 60.265625 63.496094 C 60.445312 63.71875 60.417969 63.882812 60.234375 64.101562 C 59.945312 64.445312 59.804688 64.851562 59.804688 65.308594 C 59.804688 65.835938 60.023438 66.316406 60.367188 66.664062 C 60.714844 67.007812 61.195312 67.226562 61.722656 67.226562 C 62.25 67.226562 62.726562 67.007812 63.074219 66.664062 C 63.417969 66.316406 63.628906 65.835938 63.628906 65.308594 C 63.628906 64.867188 63.496094 64.476562 63.226562 64.140625 C 63.0625 63.917969 63.027344 63.746094 63.207031 63.527344 L 63.832031 62.789062 C 64.011719 62.566406 64.242188 62.539062 64.445312 62.757812 C 65.097656 63.449219 65.453125 64.351562 65.453125 65.308594 Z M 65.453125 65.308594 " fill-opacity="1" fill-rule="nonzero"/></g></svg>