<svg xmlns="http://www.w3.org/2000/svg" xmlns:xlink="http://www.w3.org/1999/xlink" width="200" zoomAndPan="magnify" viewBox="0 0 150 149.999998" height="200" preserveAspectRatio="xMidYMid meet" version="1.0"><defs><clipPath id="a016157550"><path d="M 63.660156 19.949219 L 105.292969 19.949219 L 105.292969 124.949219 L 63.660156 124.949219 Z M 63.660156 19.949219 " clip-rule="nonzero"/></clipPath><clipPath id="409a5058be"><path d="M 80 55 L 105.429688 55 L 105.429688 68 L 80 68 Z M 80 55 " clip-rule="nonzero"/></clipPath><clipPath id="c40aacfd54"><path d="M 47.660156 19.949219 L 89.320312 19.949219 L 89.320312 124.949219 L 47.660156 124.949219 Z M 47.660156 19.949219 " clip-rule="nonzero"/></clipPath><clipPath id="e5ef753193"><path d="M 44.679688 44 L 78 44 L 78 101 L 44.679688 101 Z M 44.679688 44 " clip-rule="nonzero"/></clipPath><clipPath id="014b8507d7"><path d="M 49.421875 56.730469 L 59 56.730469 L 59 67 L 49.421875 67 Z M 49.421875 56.730469 " clip-rule="nonzero"/></clipPath><clipPath id="73d9aaabca"><path d="M 58 77 L 65.171875 77 L 65.171875 82.980469 L 58 82.980469 Z M 58 77 " clip-rule="nonzero"/></clipPath><clipPath id="2b8af9161d"><path d="M 58 70 L 65.171875 70 L 65.171875 76 L 58 76 Z M 58 70 " clip-rule="nonzero"/></clipPath><clipPath id="3435ee4d83"><path d="M 57 63 L 65.171875 63 L 65.171875 71 L 57 71 Z M 57 63 " clip-rule="nonzero"/></clipPath></defs><rect x="-15" width="180" fill="#ffffff" y="-15" height="179.999997" fill-opacity="1"/><rect x="-15" width="180" fill="#ffffff" y="-15" height="179.999997" fill-opacity="1"/><g clip-path="url(#a016157550)"><path fill="#ff5757" d="M 92.371094 82.835938 C 94.464844 82.835938 96.195312 84.566406 96.195312 86.660156 C 96.195312 88.796875 94.464844 90.527344 92.371094 90.527344 C 90.238281 90.527344 88.503906 88.796875 88.503906 86.660156 C 88.503906 84.566406 90.238281 82.835938 92.371094 82.835938 Z M 89.753906 98.941406 C 91.886719 98.941406 93.617188 100.671875 93.617188 102.765625 C 93.617188 104.898438 91.886719 106.632812 89.753906 106.632812 C 87.660156 106.632812 85.929688 104.898438 85.929688 102.765625 C 85.929688 100.671875 87.660156 98.941406 89.753906 98.941406 Z M 93.015625 66.933594 C 95.148438 66.933594 96.878906 68.664062 96.878906 70.757812 C 96.878906 72.890625 95.148438 74.625 93.015625 74.625 C 90.921875 74.625 89.191406 72.890625 89.191406 70.757812 C 89.191406 68.664062 90.921875 66.933594 93.015625 66.933594 Z M 88.625 124.949219 C 97.847656 124.949219 105.292969 101.4375 105.292969 72.449219 C 105.292969 43.460938 97.847656 19.949219 88.625 19.949219 L 63.664062 19.949219 C 72.882812 19.949219 80.371094 43.460938 80.371094 72.449219 C 80.371094 101.4375 72.882812 124.949219 63.664062 124.949219 L 88.625 124.949219 " fill-opacity="1" fill-rule="evenodd"/></g><g clip-path="url(#409a5058be)"><path fill="#232b31" d="M 105.253906 67.496094 C 105.171875 65.484375 105.09375 63.511719 104.933594 61.578125 C 99.296875 52.84375 85.164062 53.082031 80.050781 62.382812 C 80.132812 64.035156 80.210938 65.6875 80.292969 67.375 C 82.867188 54.371094 102.757812 54.414062 105.253906 67.496094 " fill-opacity="1" fill-rule="evenodd"/></g><g clip-path="url(#c40aacfd54)"><path fill="#ff3131" d="M 64.347656 124.949219 C 55.167969 124.949219 47.679688 101.4375 47.679688 72.449219 C 47.679688 43.460938 55.167969 19.949219 64.347656 19.949219 L 89.3125 19.949219 C 80.132812 19.949219 72.644531 43.460938 72.644531 72.449219 C 72.644531 101.4375 80.132812 124.949219 89.3125 124.949219 L 64.347656 124.949219 " fill-opacity="1" fill-rule="evenodd"/></g><g clip-path="url(#e5ef753193)"><path fill="#ff5757" d="M 47.078125 99.585938 C 46.3125 95.519531 45.707031 91.128906 45.304688 86.539062 C 44.902344 82.03125 44.703125 77.320312 44.703125 72.449219 C 44.703125 67.578125 44.902344 62.867188 45.304688 58.359375 C 45.707031 53.726562 46.3125 49.300781 47.078125 45.191406 C 47.238281 44.507812 47.839844 44.023438 48.527344 44.023438 L 75.78125 44.023438 C 76.589844 44.023438 77.234375 44.667969 77.234375 45.472656 C 77.234375 45.59375 77.191406 45.714844 77.191406 45.835938 C 76.425781 49.78125 75.863281 54.089844 75.460938 58.597656 C 75.058594 63.027344 74.855469 67.65625 74.855469 72.449219 C 74.855469 77.238281 75.058594 81.871094 75.460938 86.300781 C 75.863281 90.847656 76.425781 95.195312 77.191406 99.140625 C 77.351562 99.949219 76.828125 100.710938 76.023438 100.832031 C 75.945312 100.875 75.863281 100.875 75.78125 100.875 L 48.527344 100.875 C 47.761719 100.875 47.15625 100.308594 47.078125 99.585938 " fill-opacity="1" fill-rule="nonzero"/></g><path fill="#343e43" d="M 48.929688 98.296875 L 73.929688 98.296875 C 73.246094 94.390625 72.722656 90.445312 72.402344 86.5 C 72 81.832031 71.796875 77.160156 71.796875 72.449219 C 71.796875 67.738281 72 63.066406 72.402344 58.398438 C 72.722656 54.453125 73.246094 50.507812 73.929688 46.601562 L 48.929688 46.601562 C 48.246094 50.546875 47.722656 54.574219 47.359375 58.597656 C 46.957031 63.1875 46.753906 67.820312 46.753906 72.449219 C 46.753906 77.078125 46.957031 81.710938 47.359375 86.300781 C 47.722656 90.324219 48.246094 94.351562 48.929688 98.296875 " fill-opacity="1" fill-rule="evenodd"/><path fill="#232b31" d="M 48.929688 98.296875 L 73.929688 98.296875 C 73.769531 97.371094 73.609375 96.484375 73.488281 95.558594 C 54.523438 91.089844 53.15625 60.570312 53.519531 46.601562 L 48.929688 46.601562 C 48.246094 50.546875 47.722656 54.574219 47.359375 58.597656 C 46.957031 63.1875 46.753906 67.820312 46.753906 72.449219 C 46.753906 77.078125 46.957031 81.710938 47.359375 86.300781 C 47.722656 90.324219 48.246094 94.351562 48.929688 98.296875 " fill-opacity="1" fill-rule="evenodd"/><path fill="#ffffff" d="M 55.320312 66.101562 C 55.449219 66.101562 55.570312 66.050781 55.660156 65.960938 C 55.75 65.867188 55.800781 65.75 55.800781 65.621094 C 55.800781 64.941406 56.066406 64.304688 56.542969 63.824219 C 57.023438 63.347656 57.660156 63.082031 58.339844 63.082031 C 58.464844 63.082031 58.585938 63.03125 58.679688 62.941406 C 58.769531 62.851562 58.816406 62.730469 58.820312 62.601562 C 58.820312 62.46875 58.765625 62.351562 58.679688 62.261719 C 58.589844 62.175781 58.472656 62.121094 58.339844 62.121094 C 57.40625 62.121094 56.527344 62.484375 55.867188 63.148438 C 55.207031 63.808594 54.84375 64.6875 54.839844 65.621094 C 54.839844 65.875 55.0625 66.101562 55.320312 66.101562 Z M 55.320312 66.101562 " fill-opacity="1" fill-rule="nonzero"/><path fill="#ffffff" d="M 52.148438 65.621094 C 52.148438 65.875 52.371094 66.101562 52.628906 66.101562 C 52.757812 66.101562 52.878906 66.050781 52.96875 65.960938 C 53.058594 65.871094 53.109375 65.75 53.109375 65.621094 C 53.109375 62.738281 55.457031 60.390625 58.339844 60.390625 C 58.46875 60.390625 58.589844 60.339844 58.679688 60.25 C 58.769531 60.160156 58.820312 60.039062 58.820312 59.910156 C 58.820312 59.777344 58.765625 59.660156 58.679688 59.570312 C 58.589844 59.484375 58.472656 59.429688 58.339844 59.429688 C 56.6875 59.429688 55.132812 60.074219 53.964844 61.246094 C 52.792969 62.417969 52.148438 63.96875 52.148438 65.621094 Z M 52.148438 65.621094 " fill-opacity="1" fill-rule="nonzero"/><g clip-path="url(#014b8507d7)"><path fill="#ffffff" d="M 49.421875 65.621094 C 49.421875 65.878906 49.644531 66.101562 49.902344 66.101562 C 50.03125 66.101562 50.152344 66.050781 50.242188 65.960938 C 50.332031 65.867188 50.382812 65.75 50.382812 65.621094 C 50.382812 63.5 51.210938 61.5 52.714844 59.996094 C 54.21875 58.492188 56.21875 57.664062 58.339844 57.664062 C 58.605469 57.660156 58.820312 57.445312 58.820312 57.183594 C 58.820312 57.050781 58.765625 56.929688 58.679688 56.84375 C 58.589844 56.757812 58.472656 56.703125 58.339844 56.703125 C 53.421875 56.703125 49.421875 60.703125 49.421875 65.621094 Z M 49.421875 65.621094 " fill-opacity="1" fill-rule="nonzero"/></g><g clip-path="url(#73d9aaabca)"><path fill="#ffffff" d="M 65.269531 82.539062 C 65.269531 82.828125 65.128906 82.972656 64.839844 82.972656 L 58.605469 82.972656 C 58.320312 82.972656 58.175781 82.828125 58.175781 82.539062 L 58.175781 81.714844 C 58.175781 81.496094 58.269531 81.3125 58.453125 81.1875 L 61.664062 78.972656 L 58.605469 78.972656 C 58.320312 78.972656 58.175781 78.828125 58.175781 78.539062 L 58.175781 77.589844 C 58.175781 77.304688 58.320312 77.160156 58.605469 77.160156 L 64.839844 77.160156 C 65.128906 77.160156 65.269531 77.300781 65.269531 77.589844 L 65.269531 78.414062 C 65.269531 78.636719 65.175781 78.820312 64.992188 78.941406 L 61.753906 81.160156 L 64.839844 81.160156 C 65.128906 81.160156 65.269531 81.304688 65.269531 81.589844 Z M 65.269531 82.539062 " fill-opacity="1" fill-rule="nonzero"/></g><g clip-path="url(#2b8af9161d)"><path fill="#ffffff" d="M 62.558594 73.703125 L 64.839844 73.703125 C 65.128906 73.703125 65.269531 73.847656 65.269531 74.132812 L 65.269531 75.082031 C 65.269531 75.371094 65.128906 75.515625 64.839844 75.515625 L 58.605469 75.515625 C 58.316406 75.515625 58.175781 75.371094 58.175781 75.082031 L 58.175781 71.105469 C 58.175781 70.816406 58.316406 70.671875 58.605469 70.671875 L 59.554688 70.671875 C 59.84375 70.671875 59.984375 70.816406 59.984375 71.105469 L 59.984375 73.703125 L 60.878906 73.703125 L 60.878906 71.824219 C 60.878906 71.535156 61.019531 71.390625 61.308594 71.390625 L 62.125 71.390625 C 62.410156 71.390625 62.554688 71.535156 62.554688 71.824219 L 62.554688 73.703125 Z M 62.558594 73.703125 " fill-opacity="1" fill-rule="nonzero"/></g><g clip-path="url(#3435ee4d83)"><path fill="#ffffff" d="M 65.453125 66.5625 C 65.453125 67.589844 65.039062 68.519531 64.359375 69.199219 C 63.679688 69.882812 62.75 70.292969 61.722656 70.292969 C 60.6875 70.292969 59.765625 69.882812 59.085938 69.199219 C 58.402344 68.519531 57.992188 67.589844 57.992188 66.5625 C 57.992188 65.566406 58.375 64.636719 59.066406 63.9375 C 59.265625 63.734375 59.488281 63.761719 59.667969 63.992188 L 60.265625 64.75 C 60.445312 64.972656 60.417969 65.132812 60.234375 65.355469 C 59.945312 65.699219 59.804688 66.101562 59.804688 66.5625 C 59.804688 67.089844 60.023438 67.570312 60.367188 67.914062 C 60.714844 68.261719 61.195312 68.480469 61.722656 68.480469 C 62.25 68.480469 62.726562 68.261719 63.074219 67.914062 C 63.417969 67.570312 63.628906 67.089844 63.628906 66.5625 C 63.628906 66.121094 63.496094 65.730469 63.226562 65.394531 C 63.0625 65.171875 63.027344 65 63.207031 64.777344 L 63.832031 64.039062 C 64.011719 63.820312 64.242188 63.792969 64.445312 64.011719 C 65.097656 64.703125 65.453125 65.605469 65.453125 66.5625 Z M 65.453125 66.5625 " fill-opacity="1" fill-rule="nonzero"/></g></svg>