<svg xmlns="http://www.w3.org/2000/svg" xmlns:xlink="http://www.w3.org/1999/xlink" width="200" zoomAndPan="magnify" viewBox="0 0 150 149.999998" height="200" preserveAspectRatio="xMidYMid meet" version="1.0"><defs><clipPath id="79046d80e0"><path d="M 63.660156 20.191406 L 105.292969 20.191406 L 105.292969 125.191406 L 63.660156 125.191406 Z M 63.660156 20.191406 " clip-rule="nonzero"/></clipPath><clipPath id="4a5eb9a30e"><path d="M 80 55 L 105.429688 55 L 105.429688 68 L 80 68 Z M 80 55 " clip-rule="nonzero"/></clipPath><clipPath id="3ac88f8cfc"><path d="M 47.660156 20.191406 L 89.320312 20.191406 L 89.320312 125.191406 L 47.660156 125.191406 Z M 47.660156 20.191406 " clip-rule="nonzero"/></clipPath><clipPath id="6f90ff4f6d"><path d="M 44.679688 44 L 78 44 L 78 102 L 44.679688 102 Z M 44.679688 44 " clip-rule="nonzero"/></clipPath><clipPath id="b498ba26e5"><path d="M 49.421875 56.972656 L 59 56.972656 L 59 67 L 49.421875 67 Z M 49.421875 56.972656 " clip-rule="nonzero"/></clipPath><clipPath id="83ceb60dc0"><path d="M 58 77 L 65.171875 77 L 65.171875 83.222656 L 58 83.222656 Z M 58 77 " clip-rule="nonzero"/></clipPath><clipPath id="e636cd285d"><path d="M 58 70 L 65.171875 70 L 65.171875 76 L 58 76 Z M 58 70 " clip-rule="nonzero"/></clipPath><clipPath id="cec069443f"><path d="M 57 64 L 65.171875 64 L 65.171875 71 L 57 71 Z M 57 64 " clip-rule="nonzero"/></clipPath></defs><rect x="-15" width="180" fill="#ffffff" y="-15" height="179.999997" fill-opacity="1"/><rect x="-15" width="180" fill="#ffffff" y="-15" height="179.999997" fill-opacity="1"/><g clip-path="url(#79046d80e0)"><path fill="#ffbd59" d="M 92.371094 83.082031 C 94.464844 83.082031 96.195312 84.8125 96.195312 86.90625 C 96.195312 89.039062 94.464844 90.769531 92.371094 90.769531 C 90.238281 90.769531 88.503906 89.039062 88.503906 86.90625 C 88.503906 84.8125 90.238281 83.082031 92.371094 83.082031 Z M 89.753906 99.183594 C 91.886719 99.183594 93.617188 100.917969 93.617188 103.011719 C 93.617188 105.144531 91.886719 106.875 89.753906 106.875 C 87.660156 106.875 85.929688 105.144531 85.929688 103.011719 C 85.929688 100.917969 87.660156 99.183594 89.753906 99.183594 Z M 93.015625 67.175781 C 95.148438 67.175781 96.878906 68.910156 96.878906 71.003906 C 96.878906 73.136719 95.148438 74.867188 93.015625 74.867188 C 90.921875 74.867188 89.191406 73.136719 89.191406 71.003906 C 89.191406 68.910156 90.921875 67.175781 93.015625 67.175781 Z M 88.625 125.195312 C 97.847656 125.195312 105.292969 101.679688 105.292969 72.695312 C 105.292969 43.703125 97.847656 20.191406 88.625 20.191406 L 63.664062 20.191406 C 72.882812 20.191406 80.371094 43.703125 80.371094 72.695312 C 80.371094 101.679688 72.882812 125.195312 63.664062 125.195312 L 88.625 125.195312 " fill-opacity="1" fill-rule="evenodd"/></g><g clip-path="url(#4a5eb9a30e)"><path fill="#ffffff" d="M 105.253906 67.742188 C 105.171875 65.730469 105.09375 63.753906 104.933594 61.824219 C 99.296875 53.085938 85.164062 53.328125 80.050781 62.628906 C 80.132812 64.277344 80.210938 65.929688 80.292969 67.621094 C 82.867188 54.617188 102.757812 54.65625 105.253906 67.742188 " fill-opacity="1" fill-rule="evenodd"/></g><g clip-path="url(#3ac88f8cfc)"><path fill="#ffde59" d="M 64.347656 125.195312 C 55.167969 125.195312 47.679688 101.679688 47.679688 72.695312 C 47.679688 43.703125 55.167969 20.191406 64.347656 20.191406 L 89.3125 20.191406 C 80.132812 20.191406 72.644531 43.703125 72.644531 72.695312 C 72.644531 101.679688 80.132812 125.195312 89.3125 125.195312 L 64.347656 125.195312 " fill-opacity="1" fill-rule="evenodd"/></g><g clip-path="url(#6f90ff4f6d)"><path fill="#ffbd59" d="M 47.078125 99.828125 C 46.3125 95.761719 45.707031 91.375 45.304688 86.785156 C 44.902344 82.277344 44.703125 77.566406 44.703125 72.695312 C 44.703125 67.820312 44.902344 63.109375 45.304688 58.601562 C 45.707031 53.972656 46.3125 49.542969 47.078125 45.4375 C 47.238281 44.753906 47.839844 44.269531 48.527344 44.269531 L 75.78125 44.269531 C 76.589844 44.269531 77.234375 44.914062 77.234375 45.71875 C 77.234375 45.839844 77.191406 45.960938 77.191406 46.082031 C 76.425781 50.027344 75.863281 54.332031 75.460938 58.84375 C 75.058594 63.273438 74.855469 67.902344 74.855469 72.695312 C 74.855469 77.484375 75.058594 82.113281 75.460938 86.542969 C 75.863281 91.09375 76.425781 95.441406 77.191406 99.386719 C 77.351562 100.191406 76.828125 100.957031 76.023438 101.078125 C 75.945312 101.117188 75.863281 101.117188 75.78125 101.117188 L 48.527344 101.117188 C 47.761719 101.117188 47.15625 100.554688 47.078125 99.828125 " fill-opacity="1" fill-rule="nonzero"/></g><path fill="#343e43" d="M 48.929688 98.542969 L 73.929688 98.542969 C 73.246094 94.636719 72.722656 90.691406 72.402344 86.746094 C 72 82.074219 71.796875 77.402344 71.796875 72.695312 C 71.796875 67.984375 72 63.3125 72.402344 58.640625 C 72.722656 54.695312 73.246094 50.75 73.929688 46.847656 L 48.929688 46.847656 C 48.246094 50.789062 47.722656 54.816406 47.359375 58.84375 C 46.957031 63.433594 46.753906 68.0625 46.753906 72.695312 C 46.753906 77.324219 46.957031 81.953125 47.359375 86.542969 C 47.722656 90.570312 48.246094 94.59375 48.929688 98.542969 " fill-opacity="1" fill-rule="evenodd"/><path fill="#000000" d="M 48.929688 98.542969 L 73.929688 98.542969 C 73.769531 97.613281 73.609375 96.730469 73.488281 95.804688 C 54.523438 91.335938 53.15625 60.816406 53.519531 46.847656 L 48.929688 46.847656 C 48.246094 50.789062 47.722656 54.816406 47.359375 58.84375 C 46.957031 63.433594 46.753906 68.0625 46.753906 72.695312 C 46.753906 77.324219 46.957031 81.953125 47.359375 86.542969 C 47.722656 90.570312 48.246094 94.59375 48.929688 98.542969 " fill-opacity="1" fill-rule="evenodd"/><path fill="#ffffff" d="M 55.320312 66.34375 C 55.449219 66.34375 55.570312 66.292969 55.660156 66.203125 C 55.75 66.113281 55.800781 65.992188 55.800781 65.863281 C 55.800781 65.1875 56.066406 64.550781 56.542969 64.070312 C 57.023438 63.589844 57.660156 63.328125 58.339844 63.324219 C 58.464844 63.324219 58.585938 63.277344 58.679688 63.183594 C 58.769531 63.09375 58.816406 62.972656 58.820312 62.847656 C 58.820312 62.714844 58.765625 62.59375 58.679688 62.507812 C 58.589844 62.421875 58.472656 62.367188 58.339844 62.367188 C 57.40625 62.367188 56.527344 62.730469 55.867188 63.390625 C 55.207031 64.054688 54.84375 64.929688 54.839844 65.863281 C 54.839844 66.121094 55.0625 66.34375 55.320312 66.34375 Z M 55.320312 66.34375 " fill-opacity="1" fill-rule="nonzero"/><path fill="#ffffff" d="M 52.148438 65.863281 C 52.148438 66.121094 52.371094 66.34375 52.628906 66.34375 C 52.757812 66.34375 52.878906 66.292969 52.96875 66.203125 C 53.058594 66.113281 53.109375 65.992188 53.109375 65.863281 C 53.109375 62.980469 55.457031 60.636719 58.339844 60.632812 C 58.46875 60.632812 58.589844 60.585938 58.679688 60.492188 C 58.769531 60.402344 58.820312 60.28125 58.820312 60.152344 C 58.820312 60.023438 58.765625 59.902344 58.679688 59.816406 C 58.589844 59.726562 58.472656 59.675781 58.339844 59.675781 C 56.6875 59.675781 55.132812 60.320312 53.964844 61.488281 C 52.792969 62.660156 52.148438 64.214844 52.148438 65.863281 Z M 52.148438 65.863281 " fill-opacity="1" fill-rule="nonzero"/><g clip-path="url(#b498ba26e5)"><path fill="#ffffff" d="M 49.421875 65.863281 C 49.421875 66.121094 49.644531 66.34375 49.902344 66.34375 C 50.03125 66.34375 50.152344 66.292969 50.242188 66.203125 C 50.332031 66.113281 50.382812 65.992188 50.382812 65.863281 C 50.382812 63.742188 51.210938 61.746094 52.714844 60.242188 C 54.21875 58.734375 56.21875 57.90625 58.339844 57.90625 C 58.605469 57.90625 58.820312 57.691406 58.820312 57.425781 C 58.820312 57.292969 58.765625 57.175781 58.679688 57.085938 C 58.589844 57 58.472656 56.945312 58.339844 56.945312 C 53.421875 56.945312 49.421875 60.949219 49.421875 65.863281 Z M 49.421875 65.863281 " fill-opacity="1" fill-rule="nonzero"/></g><g clip-path="url(#83ceb60dc0)"><path fill="#ffffff" d="M 65.269531 82.785156 C 65.269531 83.070312 65.128906 83.214844 64.839844 83.214844 L 58.605469 83.214844 C 58.320312 83.214844 58.175781 83.070312 58.175781 82.785156 L 58.175781 81.960938 C 58.175781 81.738281 58.269531 81.554688 58.453125 81.429688 L 61.664062 79.214844 L 58.605469 79.214844 C 58.320312 79.214844 58.175781 79.074219 58.175781 78.785156 L 58.175781 77.835938 C 58.175781 77.546875 58.320312 77.402344 58.605469 77.402344 L 64.839844 77.402344 C 65.128906 77.402344 65.269531 77.546875 65.269531 77.835938 L 65.269531 78.660156 C 65.269531 78.878906 65.175781 79.0625 64.992188 79.1875 L 61.753906 81.402344 L 64.839844 81.402344 C 65.128906 81.402344 65.269531 81.546875 65.269531 81.835938 Z M 65.269531 82.785156 " fill-opacity="1" fill-rule="nonzero"/></g><g clip-path="url(#e636cd285d)"><path fill="#ffffff" d="M 62.558594 73.945312 L 64.839844 73.945312 C 65.128906 73.945312 65.269531 74.089844 65.269531 74.378906 L 65.269531 75.328125 C 65.269531 75.617188 65.128906 75.757812 64.839844 75.757812 L 58.605469 75.757812 C 58.316406 75.757812 58.175781 75.617188 58.175781 75.328125 L 58.175781 71.347656 C 58.175781 71.0625 58.316406 70.917969 58.605469 70.917969 L 59.554688 70.917969 C 59.84375 70.917969 59.984375 71.0625 59.984375 71.347656 L 59.984375 73.945312 L 60.878906 73.945312 L 60.878906 72.066406 C 60.878906 71.78125 61.019531 71.636719 61.308594 71.636719 L 62.125 71.636719 C 62.410156 71.636719 62.554688 71.78125 62.554688 72.066406 L 62.554688 73.945312 Z M 62.558594 73.945312 " fill-opacity="1" fill-rule="nonzero"/></g><g clip-path="url(#cec069443f)"><path fill="#ffffff" d="M 65.453125 66.808594 C 65.453125 67.832031 65.039062 68.765625 64.359375 69.445312 C 63.679688 70.125 62.75 70.539062 61.722656 70.539062 C 60.6875 70.539062 59.765625 70.125 59.085938 69.445312 C 58.402344 68.765625 57.992188 67.832031 57.992188 66.808594 C 57.992188 65.808594 58.375 64.878906 59.066406 64.179688 C 59.265625 63.980469 59.488281 64.007812 59.667969 64.238281 L 60.265625 64.996094 C 60.445312 65.214844 60.417969 65.378906 60.234375 65.597656 C 59.945312 65.945312 59.804688 66.347656 59.804688 66.808594 C 59.804688 67.335938 60.023438 67.816406 60.367188 68.160156 C 60.714844 68.503906 61.195312 68.726562 61.722656 68.726562 C 62.25 68.726562 62.726562 68.503906 63.074219 68.160156 C 63.417969 67.816406 63.628906 67.335938 63.628906 66.808594 C 63.628906 66.367188 63.496094 65.972656 63.226562 65.636719 C 63.0625 65.417969 63.027344 65.242188 63.207031 65.023438 L 63.832031 64.285156 C 64.011719 64.0625 64.242188 64.035156 64.445312 64.253906 C 65.097656 64.945312 65.453125 65.847656 65.453125 66.808594 Z M 65.453125 66.808594 " fill-opacity="1" fill-rule="nonzero"/></g></svg>