<svg xmlns="http://www.w3.org/2000/svg" xmlns:xlink="http://www.w3.org/1999/xlink" width="200" zoomAndPan="magnify" viewBox="0 0 150 149.999998" height="200" preserveAspectRatio="xMidYMid meet" version="1.0"><defs><clipPath id="6b2b70d6d3"><path d="M 63.660156 20.4375 L 105.292969 20.4375 L 105.292969 125.4375 L 63.660156 125.4375 Z M 63.660156 20.4375 " clip-rule="nonzero"/></clipPath><clipPath id="fe54e22635"><path d="M 80 55 L 105.429688 55 L 105.429688 68 L 80 68 Z M 80 55 " clip-rule="nonzero"/></clipPath><clipPath id="a05f9f448b"><path d="M 47.660156 20.4375 L 89.320312 20.4375 L 89.320312 125.4375 L 47.660156 125.4375 Z M 47.660156 20.4375 " clip-rule="nonzero"/></clipPath><clipPath id="3eab4b541a"><path d="M 44.679688 44 L 78 44 L 78 102 L 44.679688 102 Z M 44.679688 44 " clip-rule="nonzero"/></clipPath><clipPath id="fdcb501fb8"><path d="M 49.421875 57.21875 L 59 57.21875 L 59 67 L 49.421875 67 Z M 49.421875 57.21875 " clip-rule="nonzero"/></clipPath><clipPath id="6386e96737"><path d="M 58 77 L 65.171875 77 L 65.171875 83.46875 L 58 83.46875 Z M 58 77 " clip-rule="nonzero"/></clipPath><clipPath id="900bfb7a0e"><path d="M 58 71 L 65.171875 71 L 65.171875 77 L 58 77 Z M 58 71 " clip-rule="nonzero"/></clipPath><clipPath id="6a76c8b563"><path d="M 57 64 L 65.171875 64 L 65.171875 71 L 57 71 Z M 57 64 " clip-rule="nonzero"/></clipPath></defs><rect x="-15" width="180" fill="#ffffff" y="-15" height="179.999997" fill-opacity="1"/><rect x="-15" width="180" fill="#ffffff" y="-15" height="179.999997" fill-opacity="1"/><g clip-path="url(#6b2b70d6d3)"><path fill="#0097b2" d="M 92.371094 83.324219 C 94.464844 83.324219 96.195312 85.054688 96.195312 87.148438 C 96.195312 89.285156 94.464844 91.015625 92.371094 91.015625 C 90.238281 91.015625 88.503906 89.285156 88.503906 87.148438 C 88.503906 85.054688 90.238281 83.324219 92.371094 83.324219 Z M 89.753906 99.429688 C 91.886719 99.429688 93.617188 101.160156 93.617188 103.253906 C 93.617188 105.386719 91.886719 107.121094 89.753906 107.121094 C 87.660156 107.121094 85.929688 105.386719 85.929688 103.253906 C 85.929688 101.160156 87.660156 99.429688 89.753906 99.429688 Z M 93.015625 67.421875 C 95.148438 67.421875 96.878906 69.152344 96.878906 71.246094 C 96.878906 73.378906 95.148438 75.113281 93.015625 75.113281 C 90.921875 75.113281 89.191406 73.378906 89.191406 71.246094 C 89.191406 69.152344 90.921875 67.421875 93.015625 67.421875 Z M 88.625 125.4375 C 97.847656 125.4375 105.292969 101.925781 105.292969 72.9375 C 105.292969 43.949219 97.847656 20.4375 88.625 20.4375 L 63.664062 20.4375 C 72.882812 20.4375 80.371094 43.949219 80.371094 72.9375 C 80.371094 101.925781 72.882812 125.4375 63.664062 125.4375 L 88.625 125.4375 " fill-opacity="1" fill-rule="evenodd"/></g><g clip-path="url(#fe54e22635)"><path fill="#ffffff" d="M 105.253906 67.984375 C 105.171875 65.972656 105.09375 64 104.933594 62.066406 C 99.296875 53.332031 85.164062 53.570312 80.050781 62.871094 C 80.132812 64.523438 80.210938 66.175781 80.292969 67.863281 C 82.867188 54.859375 102.757812 54.902344 105.253906 67.984375 " fill-opacity="1" fill-rule="evenodd"/></g><g clip-path="url(#a05f9f448b)"><path fill="#38b6ff" d="M 64.347656 125.4375 C 55.167969 125.4375 47.679688 101.925781 47.679688 72.9375 C 47.679688 43.949219 55.167969 20.4375 64.347656 20.4375 L 89.3125 20.4375 C 80.132812 20.4375 72.644531 43.949219 72.644531 72.9375 C 72.644531 101.925781 80.132812 125.4375 89.3125 125.4375 L 64.347656 125.4375 " fill-opacity="1" fill-rule="evenodd"/></g><g clip-path="url(#3eab4b541a)"><path fill="#0097b2" d="M 47.078125 100.074219 C 46.3125 96.007812 45.707031 91.617188 45.304688 87.027344 C 44.902344 82.519531 44.703125 77.808594 44.703125 72.9375 C 44.703125 68.066406 44.902344 63.355469 45.304688 58.847656 C 45.707031 54.214844 46.3125 49.789062 47.078125 45.679688 C 47.238281 44.996094 47.839844 44.511719 48.527344 44.511719 L 75.78125 44.511719 C 76.589844 44.511719 77.234375 45.15625 77.234375 45.960938 C 77.234375 46.082031 77.191406 46.203125 77.191406 46.324219 C 76.425781 50.269531 75.863281 54.578125 75.460938 59.085938 C 75.058594 63.515625 74.855469 68.144531 74.855469 72.9375 C 74.855469 77.730469 75.058594 82.359375 75.460938 86.789062 C 75.863281 91.335938 76.425781 95.683594 77.191406 99.628906 C 77.351562 100.4375 76.828125 101.199219 76.023438 101.320312 C 75.945312 101.363281 75.863281 101.363281 75.78125 101.363281 L 48.527344 101.363281 C 47.761719 101.363281 47.15625 100.796875 47.078125 100.074219 " fill-opacity="1" fill-rule="nonzero"/></g><path fill="#343e43" d="M 48.929688 98.785156 L 73.929688 98.785156 C 73.246094 94.878906 72.722656 90.933594 72.402344 86.988281 C 72 82.320312 71.796875 77.648438 71.796875 72.9375 C 71.796875 68.226562 72 63.554688 72.402344 58.886719 C 72.722656 54.941406 73.246094 50.996094 73.929688 47.089844 L 48.929688 47.089844 C 48.246094 51.035156 47.722656 55.0625 47.359375 59.085938 C 46.957031 63.675781 46.753906 68.308594 46.753906 72.9375 C 46.753906 77.566406 46.957031 82.199219 47.359375 86.789062 C 47.722656 90.8125 48.246094 94.839844 48.929688 98.785156 " fill-opacity="1" fill-rule="evenodd"/><path fill="#000000" d="M 48.929688 98.785156 L 73.929688 98.785156 C 73.769531 97.859375 73.609375 96.972656 73.488281 96.046875 C 54.523438 91.578125 53.15625 61.058594 53.519531 47.089844 L 48.929688 47.089844 C 48.246094 51.035156 47.722656 55.0625 47.359375 59.085938 C 46.957031 63.675781 46.753906 68.308594 46.753906 72.9375 C 46.753906 77.566406 46.957031 82.199219 47.359375 86.789062 C 47.722656 90.8125 48.246094 94.839844 48.929688 98.785156 " fill-opacity="1" fill-rule="evenodd"/><path fill="#ffffff" d="M 55.320312 66.589844 C 55.449219 66.589844 55.570312 66.539062 55.660156 66.449219 C 55.75 66.355469 55.800781 66.238281 55.800781 66.109375 C 55.800781 65.429688 56.066406 64.792969 56.542969 64.3125 C 57.023438 63.835938 57.660156 63.570312 58.339844 63.570312 C 58.464844 63.570312 58.585938 63.519531 58.679688 63.429688 C 58.769531 63.339844 58.816406 63.21875 58.820312 63.089844 C 58.820312 62.957031 58.765625 62.839844 58.679688 62.75 C 58.589844 62.664062 58.472656 62.609375 58.339844 62.609375 C 57.40625 62.609375 56.527344 62.972656 55.867188 63.636719 C 55.207031 64.296875 54.84375 65.175781 54.839844 66.109375 C 54.839844 66.363281 55.0625 66.589844 55.320312 66.589844 Z M 55.320312 66.589844 " fill-opacity="1" fill-rule="nonzero"/><path fill="#ffffff" d="M 52.148438 66.109375 C 52.148438 66.363281 52.371094 66.589844 52.628906 66.589844 C 52.757812 66.589844 52.878906 66.539062 52.96875 66.449219 C 53.058594 66.359375 53.109375 66.238281 53.109375 66.109375 C 53.109375 63.226562 55.457031 60.878906 58.339844 60.878906 C 58.46875 60.878906 58.589844 60.828125 58.679688 60.738281 C 58.769531 60.648438 58.820312 60.527344 58.820312 60.398438 C 58.820312 60.265625 58.765625 60.148438 58.679688 60.058594 C 58.589844 59.972656 58.472656 59.917969 58.339844 59.917969 C 56.6875 59.917969 55.132812 60.5625 53.964844 61.734375 C 52.792969 62.90625 52.148438 64.457031 52.148438 66.109375 Z M 52.148438 66.109375 " fill-opacity="1" fill-rule="nonzero"/><g clip-path="url(#fdcb501fb8)"><path fill="#ffffff" d="M 49.421875 66.109375 C 49.421875 66.367188 49.644531 66.589844 49.902344 66.589844 C 50.03125 66.589844 50.152344 66.539062 50.242188 66.449219 C 50.332031 66.355469 50.382812 66.238281 50.382812 66.109375 C 50.382812 63.988281 51.210938 61.988281 52.714844 60.484375 C 54.21875 58.980469 56.21875 58.152344 58.339844 58.152344 C 58.605469 58.148438 58.820312 57.933594 58.820312 57.671875 C 58.820312 57.539062 58.765625 57.417969 58.679688 57.332031 C 58.589844 57.246094 58.472656 57.191406 58.339844 57.191406 C 53.421875 57.191406 49.421875 61.191406 49.421875 66.109375 Z M 49.421875 66.109375 " fill-opacity="1" fill-rule="nonzero"/></g><g clip-path="url(#6386e96737)"><path fill="#ffffff" d="M 65.269531 83.027344 C 65.269531 83.316406 65.128906 83.460938 64.839844 83.460938 L 58.605469 83.460938 C 58.320312 83.460938 58.175781 83.316406 58.175781 83.027344 L 58.175781 82.203125 C 58.175781 81.984375 58.269531 81.800781 58.453125 81.675781 L 61.664062 79.460938 L 58.605469 79.460938 C 58.320312 79.460938 58.175781 79.316406 58.175781 79.027344 L 58.175781 78.078125 C 58.175781 77.792969 58.320312 77.648438 58.605469 77.648438 L 64.839844 77.648438 C 65.128906 77.648438 65.269531 77.789062 65.269531 78.078125 L 65.269531 78.902344 C 65.269531 79.125 65.175781 79.308594 64.992188 79.429688 L 61.753906 81.648438 L 64.839844 81.648438 C 65.128906 81.648438 65.269531 81.792969 65.269531 82.078125 Z M 65.269531 83.027344 " fill-opacity="1" fill-rule="nonzero"/></g><g clip-path="url(#900bfb7a0e)"><path fill="#ffffff" d="M 62.558594 74.191406 L 64.839844 74.191406 C 65.128906 74.191406 65.269531 74.335938 65.269531 74.621094 L 65.269531 75.574219 C 65.269531 75.859375 65.128906 76.003906 64.839844 76.003906 L 58.605469 76.003906 C 58.316406 76.003906 58.175781 75.859375 58.175781 75.574219 L 58.175781 71.59375 C 58.175781 71.304688 58.316406 71.160156 58.605469 71.160156 L 59.554688 71.160156 C 59.84375 71.160156 59.984375 71.304688 59.984375 71.59375 L 59.984375 74.191406 L 60.878906 74.191406 L 60.878906 72.3125 C 60.878906 72.023438 61.019531 71.878906 61.308594 71.878906 L 62.125 71.878906 C 62.410156 71.878906 62.554688 72.023438 62.554688 72.3125 L 62.554688 74.191406 Z M 62.558594 74.191406 " fill-opacity="1" fill-rule="nonzero"/></g><g clip-path="url(#6a76c8b563)"><path fill="#ffffff" d="M 65.453125 67.050781 C 65.453125 68.078125 65.039062 69.007812 64.359375 69.6875 C 63.679688 70.371094 62.75 70.78125 61.722656 70.78125 C 60.6875 70.78125 59.765625 70.371094 59.085938 69.6875 C 58.402344 69.007812 57.992188 68.078125 57.992188 67.050781 C 57.992188 66.054688 58.375 65.125 59.066406 64.425781 C 59.265625 64.222656 59.488281 64.25 59.667969 64.480469 L 60.265625 65.238281 C 60.445312 65.460938 60.417969 65.621094 60.234375 65.84375 C 59.945312 66.1875 59.804688 66.589844 59.804688 67.050781 C 59.804688 67.578125 60.023438 68.058594 60.367188 68.402344 C 60.714844 68.75 61.195312 68.96875 61.722656 68.96875 C 62.25 68.96875 62.726562 68.75 63.074219 68.402344 C 63.417969 68.058594 63.628906 67.578125 63.628906 67.050781 C 63.628906 66.609375 63.496094 66.21875 63.226562 65.882812 C 63.0625 65.660156 63.027344 65.488281 63.207031 65.269531 L 63.832031 64.527344 C 64.011719 64.308594 64.242188 64.28125 64.445312 64.5 C 65.097656 65.191406 65.453125 66.09375 65.453125 67.050781 Z M 65.453125 67.050781 " fill-opacity="1" fill-rule="nonzero"/></g></svg>